<?xml version="1.0" standalone="no"?>
<!DOCTYPE svg PUBLIC "-//W3C//DTD SVG 20010904//EN"
 "http://www.w3.org/TR/2001/REC-SVG-20010904/DTD/svg10.dtd">
<svg version="1.0" xmlns="http://www.w3.org/2000/svg"
 width="104.000000pt" height="104.000000pt" viewBox="0 0 104.000000 104.000000"
 preserveAspectRatio="xMidYMid meet">
<metadata>
Created by potrace 1.11, written by Peter Selinger 2001-2013
</metadata>
<g transform="translate(0.000000,104.000000) scale(0.100000,-0.100000)"
fill="#000000" stroke="none">
<path d="M204 930 c-88 -40 -124 -97 -130 -205 -2 -33 3 -82 11 -110 16 -55
86 -174 133 -226 17 -19 39 -43 49 -55 35 -41 198 -218 218 -236 46 -45 53
-44 113 19 32 32 93 99 137 148 44 50 82 92 85 95 29 26 124 156 139 191 56
127 39 275 -40 343 -104 89 -271 80 -358 -19 l-29 -34 -31 35 c-75 81 -190
103 -297 54z m216 -85 c35 -24 53 -51 79 -117 18 -48 61 -34 75 24 9 40 60 93
105 112 74 29 169 5 213 -55 28 -37 34 -125 14 -186 -9 -28 -43 -86 -75 -129
-54 -74 -92 -118 -238 -272 l-60 -63 -116 123 c-216 229 -278 328 -271 433 1
30 10 67 18 84 40 77 176 101 256 46z"/>
</g>
</svg>
